<svg width="39" height="25" viewBox="0 0 39 25" fill="none" xmlns="http://www.w3.org/2000/svg">
<path d="M35.6492 0H3.34932C1.71587 0 0.386719 1.32915 0.386719 2.9626V4.94258V9.20932V22.0378C0.386719 23.6713 1.71587 25 3.34932 25H35.6492C37.2826 25 38.6114 23.6713 38.6114 22.0378V9.20932V4.94258V2.9626C38.6114 1.32915 37.2826 0 35.6492 0ZM1.61662 2.9626C1.61703 2.00705 2.39377 1.23031 3.34891 1.23031H35.6488C36.6039 1.23031 37.3806 2.00746 37.3806 2.9626V4.32743H1.61662V2.9626ZM37.3811 22.0374C37.3811 22.9921 36.6039 23.7693 35.6492 23.7693H3.34932C2.39418 23.7693 1.61703 22.9921 1.61703 22.0374V9.82406H37.3811V22.0374ZM37.3811 8.59375H1.61703V5.55733H37.3811V8.59375Z" fill="#265370"/>
<path d="M6.33194 21.3445C7.51509 21.3445 8.4772 20.3828 8.4772 19.2009C8.4772 18.0182 7.51509 17.0557 6.33194 17.0557C5.14961 17.0557 4.1875 18.0182 4.1875 19.2009C4.1875 20.3828 5.14961 21.3445 6.33194 21.3445ZM6.33194 18.286C6.83637 18.286 7.24688 18.6965 7.24688 19.2009C7.24688 19.7045 6.83637 20.1142 6.33194 20.1142C5.82792 20.1142 5.41781 19.7045 5.41781 19.2009C5.41781 18.6965 5.82792 18.286 6.33194 18.286Z" fill="#265370"/>
<path d="M10.9198 19.888H28.2525C28.5925 19.888 28.8677 19.6128 28.8677 19.2729C28.8677 18.9329 28.5925 18.6577 28.2525 18.6577H10.9198C10.5799 18.6577 10.3047 18.9329 10.3047 19.2729C10.3047 19.6128 10.5799 19.888 10.9198 19.888Z" fill="#265370"/>
</svg>
