<svg width="38" height="25" viewBox="0 0 38 25" fill="none" xmlns="http://www.w3.org/2000/svg">
<path d="M15.6641 10.6265C12.5462 10.6265 10.0098 13.1625 10.0098 16.2796C10.0098 19.3967 12.5462 21.9327 15.6641 21.9327C18.7805 21.9327 21.316 19.3967 21.316 16.2796C21.3156 13.1625 18.7805 10.6265 15.6641 10.6265ZM15.6641 20.7084C13.2212 20.7084 11.2341 18.7217 11.2341 16.2796C11.2341 13.8379 13.2216 11.8508 15.6641 11.8508C18.1054 11.8508 20.0917 13.8375 20.0917 16.2796C20.0913 18.7217 18.1054 20.7084 15.6641 20.7084Z" fill="#265370"/>
<path d="M3.77232 10.6265C3.434 10.6265 3.16016 10.9003 3.16016 11.2386V21.3206C3.16016 21.6589 3.434 21.9327 3.77232 21.9327C4.11064 21.9327 4.38449 21.6589 4.38449 21.3206V11.2386C4.38449 10.9007 4.11064 10.6265 3.77232 10.6265Z" fill="#265370"/>
<path d="M27.3602 10.6265C27.0219 10.6265 26.748 10.9003 26.748 11.2386V21.3206C26.748 21.6589 27.0219 21.9327 27.3602 21.9327C27.6985 21.9327 27.9724 21.6589 27.9724 21.3206V11.2386C27.9724 10.9007 27.6981 10.6265 27.3602 10.6265Z" fill="#265370"/>
<path d="M37.3391 0H7.60825C7.26993 0 6.99608 0.273842 6.99608 0.612165V3.61096H4.27848C3.94016 3.61096 3.66632 3.8848 3.66632 4.22312V7.5582H0.660993C0.32267 7.5582 0.0488281 7.83204 0.0488281 8.17036V24.3878C0.0488281 24.7262 0.32267 25 0.660993 25H30.3918C30.7301 25 31.004 24.7262 31.004 24.3878V21.0528H34.0093C34.3476 21.0528 34.6215 20.7789 34.6215 20.4406V17.4402H37.3391C37.6774 17.4402 37.9512 17.1663 37.9512 16.828V0.611757C37.9512 0.27425 37.677 0 37.3391 0ZM29.7796 23.7761H1.27316V8.78293H29.7796V23.7761ZM31.004 19.8288V8.17077C31.004 7.83245 30.7301 7.5586 30.3918 7.5586H4.89065V4.83569H33.3971V19.8288H31.004ZM36.7269 16.2162H34.6215V4.22312C34.6215 3.8848 34.3476 3.61096 34.0093 3.61096H8.22041V1.22433H36.7269V16.2162Z" fill="#265370"/>
</svg>
