<svg width="35" height="35" viewBox="0 0 35 35" fill="none" xmlns="http://www.w3.org/2000/svg">
<path d="M10.7692 0H0V10.7692H10.7692V0ZM9.42308 9.42308H1.34615V1.34615H9.42308V9.42308Z" fill="#265370"/>
<path d="M32.3075 14.8076H26.9229V18.8461H28.269V16.1538H32.3075V14.8076Z" fill="#265370"/>
<path d="M26.9227 12.1152H21.5381V13.4614H26.9227V12.1152Z" fill="#265370"/>
<path d="M16.1538 25.5769H14.8076V29.6154H16.1538V25.5769Z" fill="#265370"/>
<path d="M26.9231 29.6155H21.5385V24.2309H22.8846V22.8848H17.5V24.2309H20.1923V25.5771H17.5V26.9232H20.1923V29.6155H17.5V30.9617H22.8846V32.3078H24.2308V30.9617H26.9231V29.6155Z" fill="#265370"/>
<path d="M26.9232 24.2307H25.5771V25.5769H22.8848V26.923H25.5771V28.2692H26.9232V24.2307Z" fill="#265370"/>
<path d="M26.9227 33.6538H21.5381V35H26.9227V33.6538Z" fill="#265370"/>
<path d="M35.0003 25.5769H33.6541V28.2692H30.9618V25.5769H29.6157V32.3077H30.9618V29.6154H33.6541V33.6538H28.2695V35H35.0003V25.5769Z" fill="#265370"/>
<path d="M17.4999 4.03854V2.69238H14.8076V6.73084H22.8845V2.69238H21.5384V5.38469H16.1538V4.03854H17.4999Z" fill="#265370"/>
<path d="M35.0004 12.1152H30.9619V13.4614H33.6542V17.4998H30.9619V18.846H33.6542V24.2306H35.0004V12.1152Z" fill="#265370"/>
<path d="M13.4614 24.2307H12.1152V29.6153H13.4614V24.2307Z" fill="#265370"/>
<path d="M16.1538 21.5383H14.8077V17.4998H16.1538V16.1537H13.4615V21.5383H9.42308V16.1537H8.07692V21.5383H6.73077V12.1152H5.38462V13.4614H0V14.8075H5.38462V17.4998H2.69231V18.846H5.38462V22.8845H16.1538V21.5383Z" fill="#265370"/>
<path d="M12.1152 10.7692H13.4613V9.42308H18.8459V13.4615H9.42285V14.8077H10.769V18.8462H12.1152V14.8077H18.8459V16.1538H17.4998V17.5H21.5382V20.1923H18.8459V21.5385H28.269V20.1923H22.8844V17.5H25.5767V16.1538H20.1921V9.42308H22.8844V8.07692H13.4613V1.34615H22.8844V0H12.1152V10.7692Z" fill="#265370"/>
<path d="M32.3075 2.69238H26.9229V8.077H32.3075V2.69238Z" fill="#265370"/>
<path d="M20.1922 33.6537H13.4614V32.3076H16.1537V30.9614H12.1152V34.9999H20.1922V33.6537Z" fill="#265370"/>
<path d="M34.9997 0H24.2305V10.7692H34.9997V0ZM33.6535 9.42308H25.5766V1.34615H33.6535V9.42308Z" fill="#265370"/>
<path d="M0 34.9999H10.7692V24.2307H0V34.9999ZM1.34615 25.5769H9.42308V33.6538H1.34615V25.5769Z" fill="#265370"/>
<path d="M8.077 2.69238H2.69238V8.077H8.077V2.69238Z" fill="#265370"/>
<path d="M0 18.8462V22.8847H2.69231V21.5385H1.34615V18.8462H0Z" fill="#265370"/>
<path d="M8.077 26.9231H2.69238V32.3077H8.077V26.9231Z" fill="#265370"/>
<path d="M30.9614 20.1924H29.6152V24.2308H30.9614V20.1924Z" fill="#265370"/>
</svg>
