<svg width="71" height="71" viewBox="0 0 71 71" fill="none" xmlns="http://www.w3.org/2000/svg">
<path d="M50.1437 17.6811C51.6196 17.6966 53.0327 18.2807 54.0889 19.3118C54.6217 19.8232 55.0477 20.4352 55.3423 21.1124C55.6369 21.7896 55.7941 22.5186 55.805 23.257C55.8237 23.5354 55.9402 23.7984 56.1339 23.9993C56.3276 24.2002 56.586 24.3262 56.8636 24.3551C56.9937 24.3559 57.1227 24.331 57.2431 24.2819C57.3635 24.2327 57.473 24.1602 57.5653 24.0685C57.6576 23.9768 57.7308 23.8678 57.7808 23.7477C57.8308 23.6276 57.8565 23.4988 57.8565 23.3688C57.812 21.9241 58.3397 20.5203 59.3247 19.4626C60.3098 18.4049 61.6726 17.7788 63.1167 17.7206H63.2943C63.5559 17.7206 63.8067 17.6167 63.9917 17.4317C64.1767 17.2467 64.2806 16.9959 64.2806 16.7343C64.2806 16.4727 64.1767 16.2219 63.9917 16.0369C63.8067 15.8519 63.5559 15.748 63.2943 15.748H63.2285C62.5336 15.7469 61.846 15.6061 61.2067 15.3339C60.5673 15.0616 59.9893 14.6636 59.5069 14.1634C58.5637 13.1978 57.9969 11.9268 57.9091 10.5798C57.9091 10.5009 57.9091 10.422 57.9091 10.3366C57.9078 10.2406 57.8923 10.1453 57.8631 10.0538C57.8246 9.8261 57.7075 9.6191 57.532 9.4689C57.3566 9.31871 57.134 9.23483 56.9031 9.2319C56.6415 9.2319 56.3906 9.33582 56.2057 9.52078C56.0207 9.70575 55.9168 9.95661 55.9168 10.2182C55.9168 10.3366 55.9168 10.4549 55.9168 10.5798C55.8095 11.9924 55.1647 13.3101 54.1153 14.2617C53.0658 15.2133 51.6915 15.7264 50.2752 15.6954H50.1437C50.0142 15.6971 49.8863 15.7243 49.7673 15.7755C49.6482 15.8267 49.5405 15.9007 49.4501 15.9936C49.3598 16.0864 49.2885 16.1961 49.2406 16.3164C49.1926 16.4367 49.1688 16.5653 49.1706 16.6948C49.1739 16.9531 49.2771 17.2001 49.4585 17.384C49.6399 17.5679 49.8855 17.6744 50.1437 17.6811ZM56.9228 13.9661C57.2452 14.5389 57.6408 15.0671 58.0998 15.5376C58.5505 15.9941 59.0589 16.3897 59.6121 16.7146C58.4252 17.4134 57.4537 18.4258 56.8045 19.6406C56.4489 19.0037 56.0063 18.4194 55.4894 17.9047C55.0265 17.4725 54.5119 17.0993 53.9574 16.7935C55.1874 16.1422 56.2136 15.1637 56.9228 13.9661Z" fill="#0182FA"/>
<path d="M41.2079 46.3823C38.9991 46.3043 36.8629 45.5732 35.0695 44.2814C33.276 42.9897 31.9058 41.1953 31.1319 39.1249C30.358 37.0546 30.2153 34.8014 30.7218 32.6499C31.2282 30.4985 32.3611 28.5455 33.9772 27.0378C35.5934 25.5301 37.6202 24.5353 39.8015 24.1793C41.9829 23.8232 44.2208 24.1218 46.2325 25.0373C48.2442 25.9528 49.9393 27.4442 51.1036 29.3229C52.2679 31.2016 52.8492 33.3833 52.7738 35.5922C52.7694 35.7218 52.7906 35.8509 52.8362 35.9722C52.8817 36.0936 52.9507 36.2048 53.0393 36.2994C53.1278 36.3941 53.2342 36.4703 53.3522 36.5239C53.4703 36.5774 53.5977 36.6071 53.7272 36.6114C53.8567 36.6176 53.986 36.5978 54.1077 36.5533C54.2294 36.5088 54.341 36.4405 54.4359 36.3523C54.5309 36.2641 54.6072 36.1578 54.6606 36.0397C54.7139 35.9216 54.7431 35.7941 54.7464 35.6645C54.8358 33.0655 54.1527 30.4984 52.7833 28.2876C51.4139 26.0768 49.4198 24.3216 47.053 23.244C44.6863 22.1664 42.0531 21.8147 39.4865 22.2333C36.9199 22.652 34.535 23.8222 32.6334 25.5961C30.7318 27.37 29.3988 29.6678 28.8029 32.1992C28.2071 34.7306 28.3751 37.3817 29.2858 39.8176C30.1965 42.2535 31.8089 44.3647 33.9193 45.8842C36.0297 47.4038 38.5432 48.2636 41.1421 48.3548H41.175C41.4366 48.3592 41.6892 48.2595 41.8773 48.0776C42.0653 47.8957 42.1734 47.6466 42.1778 47.385C42.1821 47.1234 42.0824 46.8708 41.9005 46.6828C41.7186 46.4947 41.4695 46.3866 41.2079 46.3823Z" fill="#0182FA"/>
<path d="M21.87 23.3688C23.1705 23.3688 24.4417 22.9831 25.523 22.2606C26.6043 21.5381 27.4471 20.5112 27.9448 19.3097C28.4424 18.1083 28.5726 16.7862 28.3189 15.5107C28.0652 14.2352 27.439 13.0636 26.5194 12.1441C25.5999 11.2245 24.4282 10.5982 23.1528 10.3445C21.8773 10.0908 20.5552 10.221 19.3537 10.7187C18.1523 11.2164 17.1253 12.0591 16.4028 13.1404C15.6803 14.2217 15.2947 15.493 15.2947 16.7935C15.2947 18.5374 15.9875 20.2098 17.2206 21.4429C18.4537 22.676 20.1261 23.3688 21.87 23.3688ZM21.87 12.1908C22.7803 12.1908 23.6702 12.4607 24.4271 12.9665C25.184 13.4722 25.774 14.1911 26.1223 15.0321C26.4707 15.8731 26.5619 16.7986 26.3843 17.6914C26.2067 18.5843 25.7683 19.4044 25.1246 20.0481C24.4809 20.6918 23.6608 21.1301 22.7679 21.3077C21.8751 21.4853 20.9497 21.3942 20.1086 21.0458C19.2676 20.6975 18.5487 20.1075 18.043 19.3506C17.5372 18.5937 17.2673 17.7038 17.2673 16.7935C17.2673 15.5728 17.7522 14.4021 18.6154 13.5389C19.4786 12.6757 20.6493 12.1908 21.87 12.1908Z" fill="#0182FA"/>
<path d="M55.4565 39.1494C52.5791 39.0492 49.7798 40.096 47.6742 42.0598C45.5687 44.0235 44.3295 46.7432 44.2292 49.6206C44.129 52.498 45.1758 55.2973 47.1396 57.4029C49.1033 59.5084 51.823 60.7476 54.7004 60.8479H55.0817C57.9591 60.8976 60.7384 59.8022 62.8082 57.8027C64.8779 55.8032 66.0687 53.0635 66.1184 50.1861C66.1681 47.3087 65.0727 44.5294 63.0732 42.4596C61.0737 40.3898 58.3339 39.1991 55.4565 39.1494ZM61.131 56.4819C60.074 57.4704 58.7913 58.1855 57.3947 58.5649C55.998 58.9443 54.5298 58.9764 53.1179 58.6585C51.706 58.3406 50.3933 57.6823 49.294 56.7409C48.1948 55.7996 47.3424 54.6037 46.811 53.2575C46.2797 51.9114 46.0856 50.4557 46.2456 49.0173C46.4056 47.579 46.9148 46.2015 47.729 45.005C48.5432 43.8085 49.6375 42.8292 50.9168 42.1524C52.196 41.4756 53.6213 41.1219 55.0686 41.122H55.4039C57.1594 41.1821 58.8576 41.7617 60.2836 42.7874C61.7095 43.8131 62.7991 45.2388 63.4144 46.8841C64.0297 48.5293 64.143 50.3201 63.7401 52.0298C63.3371 53.7395 62.436 55.2912 61.1507 56.4885L61.131 56.4819Z" fill="#0182FA"/>
<path d="M17.9248 33.2317C16.2342 33.2317 14.5816 33.733 13.1759 34.6723C11.7702 35.6115 10.6746 36.9465 10.0276 38.5084C9.38066 40.0703 9.21138 41.789 9.5412 43.4472C9.87102 45.1053 10.6851 46.6284 11.8806 47.8238C13.076 49.0192 14.5991 49.8334 16.2572 50.1632C17.9153 50.493 19.634 50.3237 21.196 49.6768C22.7579 49.0298 24.0929 47.9342 25.0321 46.5285C25.9714 45.1228 26.4727 43.4702 26.4727 41.7796C26.4727 39.5125 25.5721 37.3383 23.9691 35.7353C22.366 34.1323 20.1919 33.2317 17.9248 33.2317ZM17.9248 48.3548C16.6244 48.3548 15.3531 47.9692 14.2718 47.2467C13.1905 46.5242 12.3477 45.4973 11.8501 44.2958C11.3524 43.0943 11.2222 41.7723 11.4759 40.4968C11.7296 39.2213 12.3558 38.0497 13.2754 37.1301C14.195 36.2106 15.3666 35.5843 16.6421 35.3306C17.9175 35.0769 19.2396 35.2071 20.4411 35.7048C21.6426 36.2024 22.6695 37.0452 23.392 38.1265C24.1145 39.2078 24.5001 40.4791 24.5001 41.7796C24.5001 42.643 24.33 43.4981 23.9996 44.2958C23.6692 45.0936 23.1848 45.8184 22.5743 46.429C21.9637 47.0396 21.2388 47.5239 20.4411 47.8543C19.6433 48.1848 18.7883 48.3548 17.9248 48.3548Z" fill="#0182FA"/>
<path d="M36.6644 57.1789H36.6118C35.6531 57.1763 34.7341 56.7959 34.054 56.1202C33.3606 55.436 32.9419 54.5214 32.877 53.5493C32.877 53.4901 32.877 53.431 32.877 53.3718C32.8672 53.1017 32.7599 52.8443 32.575 52.6473C32.39 52.4502 32.1399 52.3269 31.871 52.3C31.6106 52.3035 31.3621 52.4098 31.1798 52.5958C30.9974 52.7818 30.8961 53.0324 30.8979 53.2929C30.8979 53.3849 30.8979 53.4704 30.8979 53.5559C30.819 55.752 28.8003 57.1328 26.9132 57.1526H26.7883C26.6588 57.1543 26.5309 57.1815 26.4119 57.2327C26.2928 57.2838 26.1851 57.3579 26.0947 57.4507C26.0043 57.5435 25.9331 57.6532 25.8852 57.7736C25.8372 57.8939 25.8134 58.0225 25.8152 58.152C25.816 58.2818 25.8426 58.4101 25.8935 58.5295C25.9443 58.6489 26.0184 58.757 26.1114 58.8476C26.2044 58.9381 26.3144 59.0093 26.4351 59.0569C26.5559 59.1046 26.6848 59.1278 26.8146 59.1251C27.3307 59.1245 27.8419 59.2264 28.3182 59.4251C28.7946 59.6238 29.2267 59.9152 29.5894 60.2824C29.9658 60.6427 30.267 61.074 30.4758 61.5514C30.6846 62.0288 30.7968 62.5428 30.8058 63.0638C30.8193 63.3381 30.9322 63.5981 31.1233 63.7954C31.3145 63.9926 31.5709 64.1135 31.8447 64.1355C32.1051 64.1321 32.3536 64.0257 32.5359 63.8397C32.7183 63.6537 32.8196 63.4031 32.8178 63.1426C32.7859 62.1215 33.1594 61.1293 33.8567 60.3826C34.554 59.636 35.5185 59.1958 36.5394 59.158H36.6644C36.926 59.158 37.1768 59.0541 37.3618 58.8692C37.5468 58.6842 37.6507 58.4333 37.6507 58.1717C37.6507 57.9102 37.5468 57.6593 37.3618 57.4743C37.1768 57.2894 36.926 57.1854 36.6644 57.1854V57.1789ZM31.7921 59.8682C31.5535 59.5095 31.278 59.1767 30.9702 58.8753C30.7136 58.6326 30.4364 58.4126 30.1417 58.2178C30.8272 57.7982 31.4201 57.2433 31.8841 56.5871C32.112 56.9385 32.3765 57.2647 32.6732 57.5602C32.91 57.8014 33.1674 58.0214 33.4425 58.2178C32.7868 58.6538 32.2256 59.2173 31.7921 59.8747V59.8682Z" fill="#0182FA"/>
<path d="M41.9575 26.6564C37.5586 26.4986 33.8699 30.1742 33.7055 34.8361C33.7002 34.9661 33.7208 35.096 33.7659 35.2181C33.8111 35.3402 33.8799 35.4522 33.9686 35.5475C34.0572 35.6429 34.1638 35.7197 34.2823 35.7737C34.4008 35.8276 34.5288 35.8576 34.6589 35.8618H34.6918C34.9478 35.8619 35.1938 35.7626 35.3778 35.5846C35.5619 35.4067 35.6696 35.1642 35.6781 34.9084C35.803 31.3314 38.5909 28.5501 41.8917 28.629C42.0212 28.6352 42.1505 28.6154 42.2722 28.5709C42.3939 28.5264 42.5055 28.4581 42.6004 28.3699C42.6954 28.2817 42.7717 28.1754 42.825 28.0573C42.8784 27.9392 42.9075 27.8117 42.9109 27.6822C42.9162 27.5521 42.8956 27.4222 42.8505 27.3001C42.8053 27.178 42.7365 27.0661 42.6478 26.9707C42.5592 26.8753 42.4526 26.7985 42.3341 26.7445C42.2156 26.6906 42.0876 26.6606 41.9575 26.6564Z" fill="#0182FA"/>
<path d="M54.7793 42.7658C53.1243 42.7588 51.5339 43.4082 50.3569 44.5717C49.1798 45.7352 48.5121 47.3179 48.4999 48.9729C48.4955 49.1025 48.5167 49.2316 48.5622 49.3529C48.6078 49.4743 48.6768 49.5855 48.7654 49.6801C48.8539 49.7748 48.9602 49.851 49.0783 49.9046C49.1963 49.9581 49.3238 49.9878 49.4533 49.9921H49.4862C49.7422 49.9922 49.9882 49.8928 50.1722 49.7149C50.3563 49.537 50.4639 49.2945 50.4725 49.0387C50.4723 47.9077 50.9171 46.8221 51.7106 46.0163C52.5041 45.2105 53.5827 44.7491 54.7135 44.7319C54.8437 44.739 54.974 44.7197 55.0965 44.6751C55.2191 44.6305 55.3313 44.5617 55.4265 44.4726C55.5217 44.3835 55.5979 44.2761 55.6506 44.1568C55.7032 44.0375 55.7311 43.9088 55.7327 43.7784C55.7398 43.5179 55.6435 43.2652 55.4649 43.0755C55.2862 42.8858 55.0397 42.7744 54.7793 42.7658Z" fill="#0182FA"/>
<path d="M16.9385 36.8481C14.5846 36.8481 12.6646 39.0574 12.6646 41.7796C12.6646 42.0411 12.7685 42.292 12.9535 42.477C13.1384 42.6619 13.3893 42.7658 13.6509 42.7658C13.9125 42.7658 14.1633 42.6619 14.3483 42.477C14.5333 42.292 14.6372 42.0411 14.6372 41.7796C14.6372 40.1489 15.6695 38.8207 16.9385 38.8207C17.2001 38.8207 17.451 38.7168 17.6359 38.5318C17.8209 38.3468 17.9248 38.096 17.9248 37.8344C17.9248 37.5728 17.8209 37.3219 17.6359 37.137C17.451 36.952 17.2001 36.8481 16.9385 36.8481Z" fill="#0182FA"/>
</svg>
