<svg width="71" height="71" viewBox="0 0 71 71" fill="none" xmlns="http://www.w3.org/2000/svg">
<path d="M46.6548 43.8448C46.426 43.8448 46.2067 43.7505 46.0449 43.5826C45.8832 43.4148 45.7923 43.1871 45.7923 42.9497V35.49H41.0491C40.8204 35.49 40.601 35.3957 40.4393 35.2278C40.2775 35.0599 40.1867 34.8322 40.1867 34.5948C40.1867 34.3574 40.2775 34.1297 40.4393 33.9619C40.601 33.794 40.8204 33.6997 41.0491 33.6997H46.6548C46.8835 33.6997 47.1028 33.794 47.2646 33.9619C47.4263 34.1297 47.5172 34.3574 47.5172 34.5948V42.9497C47.5172 43.1871 47.4263 43.4148 47.2646 43.5826C47.1028 43.7505 46.8835 43.8448 46.6548 43.8448Z" fill="#0182FA"/>
<path d="M46.6548 52.1997H41.7678C41.539 52.1997 41.3197 52.1054 41.1579 51.9375C40.9962 51.7696 40.9053 51.5419 40.9053 51.3045C40.9053 51.0671 40.9962 50.8394 41.1579 50.6715C41.3197 50.5037 41.539 50.4094 41.7678 50.4094H45.7924V43.8448H42.1472C41.9185 43.8448 41.6991 43.7505 41.5374 43.5826C41.3757 43.4148 41.2848 43.1871 41.2848 42.9497C41.2848 42.7123 41.3757 42.4846 41.5374 42.3167C41.6991 42.1488 41.9185 42.0545 42.1472 42.0545H46.6548C46.8835 42.0545 47.1028 42.1488 47.2646 42.3167C47.4263 42.4846 47.5172 42.7123 47.5172 42.9497L47.5172 51.3045C47.5172 51.5419 47.4263 51.7696 47.2646 51.9375C47.1028 52.1054 46.8835 52.1997 46.6548 52.1997Z" fill="#0182FA"/>
<path d="M46.6548 60.5545H40.0832C39.8544 60.5545 39.6351 60.4602 39.4734 60.2923C39.3116 60.1245 39.2208 59.8968 39.2208 59.6594C39.2208 59.422 39.3116 59.1943 39.4734 59.0264C39.6351 58.8585 39.8544 58.7642 40.0832 58.7642H45.7923V51.3045C45.7923 51.0671 45.8832 50.8394 46.0449 50.6715C46.2067 50.5037 46.426 50.4094 46.6548 50.4094C46.8835 50.4094 47.1028 50.5037 47.2646 50.6715C47.4263 50.8394 47.5172 51.0671 47.5172 51.3045L47.5172 59.6594C47.5172 59.8968 47.4263 60.1245 47.2646 60.2923C47.1028 60.4602 46.8835 60.5545 46.6548 60.5545Z" fill="#0182FA"/>
<path d="M13.8831 43.8448C12.587 43.8448 11.344 43.3104 10.4275 42.3591C9.51097 41.4078 8.99609 40.1176 8.99609 38.7722C8.99609 37.4269 9.51097 36.1367 10.4275 35.1854C11.344 34.2341 12.587 33.6997 13.8831 33.6997H23.6571C23.8858 33.6997 24.1052 33.794 24.2669 33.9619C24.4287 34.1297 24.5195 34.3574 24.5195 34.5948C24.5195 34.8322 24.4287 35.0599 24.2669 35.2278C24.1052 35.3957 23.8858 35.49 23.6571 35.49H13.8831C13.0444 35.49 12.2401 35.8358 11.6471 36.4513C11.0541 37.0669 10.7209 37.9017 10.7209 38.7722C10.7209 39.6428 11.0541 40.4776 11.6471 41.0932C12.2401 41.7087 13.0444 42.0545 13.8831 42.0545C14.1118 42.0545 14.3312 42.1488 14.4929 42.3167C14.6546 42.4846 14.7455 42.7123 14.7455 42.9497C14.7455 43.1871 14.6546 43.4148 14.4929 43.5826C14.3312 43.7505 14.1118 43.8448 13.8831 43.8448Z" fill="#0182FA"/>
<path d="M46.6548 35.49C46.426 35.49 46.2067 35.3957 46.0449 35.2278C45.8832 35.0599 45.7924 34.8322 45.7924 34.5948V22.3609H41.7678C41.539 22.3609 41.3197 22.2666 41.1579 22.0988C40.9962 21.9309 40.9053 21.7032 40.9053 21.4658C40.9053 21.2284 40.9962 21.0007 41.1579 20.8328C41.3197 20.6649 41.539 20.5706 41.7678 20.5706H46.6548C46.8835 20.5706 47.1028 20.6649 47.2646 20.8328C47.4263 21.0007 47.5172 21.2284 47.5172 21.4658L47.5172 34.5948C47.5172 34.8322 47.4263 35.0599 47.2646 35.2278C47.1028 35.3957 46.8835 35.49 46.6548 35.49Z" fill="#0182FA"/>
<path d="M15.3204 22.3609H13.8831C13.6544 22.3609 13.435 22.2666 13.2733 22.0988C13.1115 21.9309 13.0207 21.7032 13.0207 21.4658C13.0207 21.2284 13.1115 21.0007 13.2733 20.8328C13.435 20.6649 13.6544 20.5706 13.8831 20.5706H15.3204C15.5492 20.5706 15.7685 20.6649 15.9303 20.8328C16.092 21.0007 16.1829 21.2284 16.1829 21.4658C16.1829 21.7032 16.092 21.9309 15.9303 22.0988C15.7685 22.2666 15.5492 22.3609 15.3204 22.3609Z" fill="#0182FA"/>
<path d="M13.8831 52.1997C12.587 52.1997 11.344 51.6652 10.4275 50.714C9.51097 49.7627 8.99609 48.4724 8.99609 47.1271C8.99609 45.7818 9.51097 44.4915 10.4275 43.5402C11.344 42.5889 12.587 42.0545 13.8831 42.0545H24.807C25.0357 42.0545 25.2551 42.1488 25.4168 42.3167C25.5785 42.4846 25.6694 42.7123 25.6694 42.9497C25.6694 43.1871 25.5785 43.4148 25.4168 43.5826C25.2551 43.7505 25.0357 43.8448 24.807 43.8448H13.8831C13.0444 43.8448 12.2401 44.1906 11.6471 44.8062C11.0541 45.4217 10.7209 46.2566 10.7209 47.1271C10.7209 47.9976 11.0541 48.8325 11.6471 49.448C12.2401 50.0635 13.0444 50.4094 13.8831 50.4094C14.1118 50.4094 14.3312 50.5037 14.4929 50.6715C14.6546 50.8394 14.7455 51.0671 14.7455 51.3045C14.7455 51.5419 14.6546 51.7696 14.4929 51.9375C14.3312 52.1054 14.1118 52.1997 13.8831 52.1997Z" fill="#0182FA"/>
<path d="M24.5943 60.5545H13.8831C12.587 60.5545 11.344 60.0201 10.4275 59.0688C9.51097 58.1175 8.99609 56.8273 8.99609 55.4819C8.99609 54.1366 9.51097 52.8464 10.4275 51.8951C11.344 50.9438 12.587 50.4094 13.8831 50.4094L24.5943 50.4094C24.823 50.4094 25.0423 50.5037 25.2041 50.6715C25.3658 50.8394 25.4567 51.0671 25.4567 51.3045C25.4567 51.5419 25.3658 51.7696 25.2041 51.9375C25.0423 52.1054 24.823 52.1997 24.5943 52.1997L13.8831 52.1997C13.0444 52.1997 12.2401 52.5455 11.6471 53.161C11.0541 53.7766 10.7209 54.6114 10.7209 55.4819C10.7209 56.3525 11.0541 57.1873 11.6471 57.8029C12.2401 58.4184 13.0444 58.7642 13.8831 58.7642H24.5943C24.823 58.7642 25.0423 58.8585 25.2041 59.0264C25.3658 59.1943 25.4567 59.422 25.4567 59.6594C25.4567 59.8968 25.3658 60.1245 25.2041 60.2923C25.0423 60.4602 24.823 60.5545 24.5943 60.5545Z" fill="#0182FA"/>
<path d="M40.2327 16.99H22.5072C22.2785 16.99 22.0591 16.8957 21.8974 16.7278C21.7357 16.5599 21.6448 16.3322 21.6448 16.0948V10.1271C21.6448 9.88965 21.7357 9.66197 21.8974 9.49409C22.0591 9.32621 22.2785 9.2319 22.5072 9.2319H33.2414C37.9156 9.2319 40.3994 13.5526 41.0606 15.8382C41.0991 15.972 41.107 16.1133 41.0836 16.2508C41.0601 16.3883 41.006 16.5182 40.9256 16.6301C40.8451 16.742 40.7406 16.8329 40.6202 16.8954C40.4999 16.9579 40.3672 16.9902 40.2327 16.99ZM23.3696 15.1996H38.9505C38.2089 13.6301 36.484 11.0222 33.2356 11.0222H23.3696V15.1996Z" fill="#0182FA"/>
<path d="M35.1559 22.3609H29.9815C29.7527 22.3609 29.5334 22.2666 29.3716 22.0988C29.2099 21.9309 29.119 21.7032 29.119 21.4658V16.0948C29.119 15.8574 29.2099 15.6297 29.3716 15.4618C29.5334 15.294 29.7527 15.1997 29.9815 15.1997H35.1559C35.3847 15.1997 35.604 15.294 35.7657 15.4618C35.9275 15.6297 36.0183 15.8574 36.0183 16.0948V21.4658C36.0183 21.7032 35.9275 21.9309 35.7657 22.0988C35.604 22.2666 35.3847 22.3609 35.1559 22.3609ZM30.8439 20.5706H34.2935V16.99H30.8439V20.5706Z" fill="#0182FA"/>
<path d="M22.5072 16.99L18.4826 16.99C18.2539 16.99 18.0345 16.8957 17.8728 16.7278C17.7111 16.5599 17.6202 16.3322 17.6202 16.0948V11.9174C17.6202 11.68 17.7111 11.4523 17.8728 11.2844C18.0345 11.1165 18.2539 11.0222 18.4826 11.0222H22.5072C22.7359 11.0222 22.9553 11.1165 23.117 11.2844C23.2788 11.4523 23.3696 11.68 23.3696 11.9174V16.0948C23.3696 16.3322 23.2788 16.5599 23.117 16.7278C22.9553 16.8957 22.7359 16.99 22.5072 16.99ZM19.345 15.1997H21.6448V12.8126H19.345V15.1997Z" fill="#0182FA"/>
<path d="M18.7241 30.119C18.6069 30.1166 18.4914 30.0895 18.3846 30.0392C18.2779 29.9889 18.1821 29.9166 18.1032 29.8266L17.143 28.7226C17.0137 28.578 16.934 28.3931 16.9163 28.1967C16.8987 28.0003 16.944 27.8034 17.0453 27.6364L21.6448 20.2364L21.6448 16.0948C21.6448 15.8574 21.7357 15.6297 21.8974 15.4618C22.0591 15.294 22.2785 15.1997 22.5072 15.1997H25.9569C26.1856 15.1997 26.405 15.294 26.5667 15.4618C26.7284 15.6297 26.8193 15.8574 26.8193 16.0948V21.603C26.8191 21.8375 26.7303 22.0624 26.5721 22.2297L19.345 29.8505C19.2642 29.9361 19.1675 30.004 19.0608 30.0502C18.9542 30.0963 18.8397 30.1197 18.7241 30.119ZM23.3696 16.99V20.499C23.3692 20.6705 23.3213 20.8383 23.2316 20.9824L19.2071 27.4037L25.0945 21.239V16.99H23.3696Z" fill="#0182FA"/>
<path d="M39.1805 64.1352H24.807C24.5783 64.1352 24.3589 64.0409 24.1972 63.873C24.0354 63.7051 23.9446 63.4774 23.9446 63.24V43.5882C23.945 43.0814 24.0417 42.5797 24.2292 42.1117C24.4166 41.6437 24.6911 41.2187 25.037 40.861L30.8784 34.7858C31.1603 34.4933 31.3518 34.1202 31.4286 33.7142C31.5054 33.3081 31.464 32.8876 31.3096 32.5061L28.1876 24.8077C28.1434 24.6981 28.1206 24.5805 28.1206 24.4616C28.1206 24.3427 28.1434 24.2251 28.1876 24.1155L29.3778 21.1316C29.4416 20.967 29.5511 20.8258 29.6923 20.7259C29.8336 20.626 30.0003 20.572 30.1712 20.5706H34.9605C35.09 20.5712 35.2177 20.6021 35.3342 20.661C35.4506 20.7199 35.5528 20.8053 35.6331 20.9108C35.8631 21.2032 41.1928 28.269 42.9176 42.2395C43.6248 47.9208 40.1752 62.8223 40.0429 63.4489C39.9968 63.6486 39.886 63.8258 39.729 63.9508C39.5719 64.0757 39.3783 64.1408 39.1805 64.1352ZM25.6694 62.3449H38.4963C39.169 59.3252 41.7678 47.1689 41.1928 42.4663C39.7325 30.6561 35.5699 23.9006 34.5292 22.3609H30.7461L29.9125 24.4497L32.8964 31.8019C33.1875 32.512 33.267 33.2963 33.1245 34.0536C32.9821 34.811 32.6243 35.5067 32.0972 36.051L26.2443 42.1142C26.0592 42.3093 25.9131 42.5406 25.8145 42.7946C25.7158 43.0486 25.6665 43.3203 25.6694 43.5942V62.3449Z" fill="#0182FA"/>
<path d="M9.85851 39.6674C9.62978 39.6674 9.41042 39.5731 9.24869 39.4052C9.08696 39.2374 8.99609 39.0097 8.99609 38.7722V25.6432C8.99762 24.2984 9.51298 23.009 10.4291 22.0581C11.3453 21.1071 12.5874 20.5722 13.8831 20.5706C14.1118 20.5706 14.3312 20.6649 14.4929 20.8328C14.6546 21.0007 14.7455 21.2284 14.7455 21.4658C14.7455 21.7032 14.6546 21.9309 14.4929 22.0988C14.3312 22.2666 14.1118 22.3609 13.8831 22.3609C13.0449 22.3625 12.2415 22.7088 11.6488 23.324C11.0561 23.9392 10.7224 24.7732 10.7209 25.6432V38.7722C10.7209 39.0097 10.6301 39.2374 10.4683 39.4052C10.3066 39.5731 10.0872 39.6674 9.85851 39.6674Z" fill="#0182FA"/>
<path d="M33.1436 53.3932C32.0065 53.3932 30.8949 53.0432 29.9494 52.3875C29.0039 51.7317 28.267 50.7997 27.8319 49.7092C27.3967 48.6188 27.2829 47.4189 27.5047 46.2612C27.7265 45.1036 28.2741 44.0403 29.0782 43.2057C29.8823 42.371 30.9067 41.8027 32.022 41.5724C33.1373 41.3421 34.2933 41.4603 35.3438 41.912C36.3944 42.3637 37.2923 43.1286 37.9241 44.11C38.5559 45.0914 38.893 46.2452 38.893 47.4255C38.893 49.0082 38.2873 50.5261 37.2091 51.6453C36.1309 52.7645 34.6685 53.3932 33.1436 53.3932ZM33.1436 43.2481C32.3476 43.2481 31.5695 43.4931 30.9077 43.9521C30.2459 44.4111 29.73 45.0635 29.4254 45.8269C29.1208 46.5902 29.0411 47.4301 29.1964 48.2405C29.3517 49.0508 29.735 49.7951 30.2978 50.3794C30.8607 50.9636 31.5778 51.3615 32.3585 51.5226C33.1392 51.6838 33.9484 51.6011 34.6838 51.2849C35.4192 50.9687 36.0477 50.4333 36.49 49.7463C36.9322 49.0594 37.1682 48.2517 37.1682 47.4255C37.1682 46.3176 36.7442 45.255 35.9894 44.4716C35.2347 43.6882 34.211 43.2481 33.1436 43.2481Z" fill="#0182FA"/>
</svg>
