<svg width="71" height="71" viewBox="0 0 71 71" fill="none" xmlns="http://www.w3.org/2000/svg">
<path d="M46.9424 27.2827C47.0365 27.2382 47.1229 27.179 47.1985 27.1074L63.3739 10.9321C63.5524 10.7404 63.6497 10.4869 63.645 10.225C63.6404 9.96312 63.5343 9.71323 63.3491 9.52801C63.1639 9.34278 62.914 9.23668 62.6521 9.23206C62.3902 9.22744 62.1367 9.32466 61.945 9.50323L45.7697 25.6786C45.6909 25.7614 45.6271 25.8571 45.581 25.9617C41.3956 22.5851 35.0602 23.0231 30.9827 27.1276L10.1637 42.5684C10.0481 42.6543 9.95216 42.764 9.88238 42.89C9.81261 43.016 9.77057 43.1555 9.75908 43.2991C9.74759 43.4427 9.76692 43.5871 9.81578 43.7226C9.86463 43.8581 9.94188 43.9816 10.0424 44.0848L29.3786 63.8322C29.4727 63.9282 29.5849 64.0044 29.7087 64.0565C29.8325 64.1085 29.9655 64.1354 30.0998 64.1355H30.1807C30.3289 64.1241 30.4728 64.0801 30.6021 64.0067C30.7315 63.9334 30.843 63.8323 30.9288 63.7109L46.4302 41.8944C47.4312 40.8663 48.2193 39.6506 48.749 38.317C49.2787 36.9834 49.5397 35.5583 49.517 34.1235C49.4951 31.6104 48.5828 29.1866 46.9424 27.2827ZM29.9785 61.5542L24.7552 56.2231C24.828 56.1868 24.8959 56.1415 24.9574 56.0883L34.393 46.6526C34.5716 46.461 34.6688 46.2075 34.6642 45.9456C34.6596 45.6837 34.5535 45.4338 34.3682 45.2486C34.183 45.0634 33.9331 44.9573 33.6712 44.9527C33.4093 44.948 33.1558 45.0452 32.9642 45.2238L23.5286 54.6595C23.481 54.7175 23.4403 54.7808 23.4072 54.8482L18.7636 50.1304C18.8086 50.1047 18.8514 50.0754 18.8916 50.0427L28.3272 40.6071C28.5058 40.4155 28.603 40.162 28.5984 39.9001C28.5938 39.6382 28.4877 39.3883 28.3025 39.2031C28.1173 39.0178 27.8674 38.9117 27.6055 38.9071C27.3435 38.9025 27.0901 38.9997 26.8984 39.1783L17.4628 48.6139C17.4356 48.6481 17.4109 48.6841 17.3887 48.7217L12.3002 43.5052L31.6567 29.163L44.0847 41.5978H44.1252L29.9785 61.5542ZM45.3653 39.987L33.2338 27.8555C36.7587 24.9844 41.7932 24.9911 44.9137 28.0308C45.7314 28.8264 46.383 29.7764 46.8307 30.8258C47.2784 31.8751 47.5134 33.0029 47.522 34.1437C47.542 36.2998 46.7752 38.3893 45.3653 40.0208V39.987Z" fill="#0182FA"/>
<path d="M62.9358 28.2936C63.4873 29.1335 63.8353 30.0905 63.9523 31.0884C64.0693 32.0864 63.952 33.0979 63.6098 34.0426C62.2618 37.736 57.8945 39.7377 53.8506 38.4908C53.5941 38.4122 53.3169 38.4386 53.0799 38.5644C52.8429 38.6902 52.6656 38.9049 52.5869 39.1614C52.5083 39.4179 52.5347 39.6952 52.6605 39.9322C52.7863 40.1692 53.001 40.3465 53.2575 40.4251C54.2403 40.7262 55.2626 40.8784 56.2904 40.8767C60.3343 40.8767 64.1557 38.4908 65.5171 34.7233C65.9657 33.4851 66.1195 32.1594 65.9662 30.8515C65.813 29.5435 65.3569 28.2892 64.6342 27.1883C64.5621 27.0768 64.4687 26.9806 64.3594 26.9051C64.25 26.8297 64.1269 26.7765 63.9971 26.7487C63.8672 26.7208 63.7331 26.7188 63.6025 26.7428C63.4719 26.7668 63.3472 26.8162 63.2357 26.8884C63.1242 26.9605 63.028 27.0539 62.9525 27.1632C62.8771 27.2725 62.824 27.3956 62.7961 27.5255C62.7683 27.6554 62.7663 27.7894 62.7902 27.9201C62.8142 28.0507 62.8637 28.1754 62.9358 28.2869V28.2936Z" fill="#0182FA"/>
<path d="M67.7143 44.314C67.589 44.269 67.4562 44.2493 67.3233 44.2558C67.1904 44.2623 67.0602 44.295 66.9399 44.352C66.8197 44.409 66.7119 44.4891 66.6228 44.5878C66.5336 44.6866 66.4647 44.8019 66.4202 44.9273C66.0563 45.8857 65.4888 46.7538 64.7569 47.4717C64.025 48.1896 63.1462 48.7402 62.1809 49.0857C58.2854 50.5819 53.763 48.9913 52.105 45.5473C52.0516 45.4214 51.9731 45.3077 51.8744 45.213C51.7757 45.1183 51.6589 45.0446 51.5309 44.9964C51.4029 44.9482 51.2664 44.9265 51.1298 44.9325C50.9932 44.9386 50.8592 44.9723 50.7359 45.0316C50.6127 45.0909 50.5028 45.1747 50.4128 45.2777C50.3229 45.3807 50.2548 45.501 50.2127 45.6311C50.1706 45.7612 50.1553 45.8985 50.1678 46.0347C50.1802 46.1709 50.2202 46.3032 50.2853 46.4235C51.8557 49.6923 55.4277 51.6603 59.1615 51.6603C60.4391 51.6659 61.7069 51.4375 62.9021 50.9863C64.1371 50.5308 65.2587 49.8128 66.1896 48.882C67.1204 47.9512 67.8383 46.8296 68.2939 45.5945C68.3822 45.3476 68.3712 45.076 68.263 44.837C68.1549 44.5981 67.9581 44.4105 67.7143 44.314Z" fill="#0182FA"/>
<path d="M61.0352 58.1304C60.1577 58.7889 59.1558 59.2627 58.0901 59.5234C57.0244 59.784 55.917 59.826 54.8346 59.6469C53.8203 59.4917 52.847 59.1366 51.9711 58.602C51.0953 58.0675 50.3344 57.3642 49.7326 56.5331C49.2192 55.8139 48.8561 54.9986 48.665 54.1359C48.4739 53.2731 48.4588 52.3807 48.6206 51.512C48.6449 51.3814 48.6433 51.2474 48.6158 51.1175C48.5884 50.9875 48.5356 50.8643 48.4605 50.7548C48.3854 50.6452 48.2894 50.5516 48.1781 50.4791C48.0668 50.4067 47.9424 50.3569 47.8118 50.3325C47.6813 50.3082 47.5472 50.3098 47.4173 50.3373C47.2874 50.3648 47.1641 50.4176 47.0546 50.4927C46.9451 50.5678 46.8514 50.6637 46.779 50.775C46.7065 50.8863 46.6567 51.0108 46.6324 51.1413C46.421 52.2746 46.4404 53.4389 46.6894 54.5645C46.9384 55.6901 47.4118 56.7539 48.0814 57.6923C48.8385 58.7427 49.7968 59.6321 50.9006 60.309C52.0044 60.9858 53.2316 61.4366 54.5111 61.6351C55.0548 61.724 55.6047 61.7691 56.1556 61.7699C58.3569 61.7787 60.5008 61.0687 62.2618 59.7479C62.3748 59.6703 62.4708 59.5705 62.544 59.4546C62.6172 59.3387 62.6661 59.2091 62.6876 59.0738C62.7092 58.9384 62.703 58.8 62.6694 58.6671C62.6359 58.5342 62.5756 58.4095 62.4923 58.3006C62.4091 58.1917 62.3045 58.1009 62.185 58.0337C62.0656 57.9665 61.9337 57.9242 61.7974 57.9096C61.6611 57.8949 61.5232 57.9081 61.3922 57.9484C61.2612 57.9887 61.1397 58.0552 61.0352 58.1439V58.1304Z" fill="#0182FA"/>
</svg>
